<?xml version="1.0" encoding="UTF-8" standalone="no"?>
<svg width="100px" height="100px" viewBox="0 0 100 100" version="1.1" xmlns="http://www.w3.org/2000/svg" xmlns:xlink="http://www.w3.org/1999/xlink" xmlns:sketch="http://www.bohemiancoding.com/sketch/ns">
    <title>Slice 1</title>
    <description>Created with Sketch (http://www.bohemiancoding.com/sketch)</description>
    <defs></defs>
    <g id="Page 1" stroke="none" stroke-width="1" fill="none" fill-rule="evenodd">
        <g id="Layer_1" fill="#FFFFFF">
            <path d="M0,50.002 C0,77.571 22.43,100 50,100 C77.569,100 99.999,77.57 99.999,50.001 C99.999,22.43 77.569,0 50,0 C22.43,0 0,22.43 0,50.002 L0,50.002 L0,50.002 Z M8.8,50.002 C8.8,27.283 27.282,8.8 50,8.8 C72.718,8.8 91.199,27.283 91.199,50.002 C91.199,72.718 72.719,91.201 50,91.201 C27.282,91.201 8.8,72.718 8.8,50.002 L8.8,50.002 L8.8,50.002 Z M8.8,50.002" id="Shape"></path>
            <path d="M65.181,36.761 C63.862,34.75 62.226,33.444 60.272,32.844 C59,32.445 56.269,32.243 52.083,32.243 L41.029,32.243 L41.029,72.265 L47.865,72.265 L47.865,57.162 L52.368,57.162 C55.494,57.162 57.881,56.971 59.529,56.588 C60.743,56.279 61.935,55.648 63.11,54.692 C64.287,53.739 65.254,52.423 66.015,50.749 C66.778,49.075 67.159,47.009 67.159,44.553 C67.16,41.37 66.5,38.771 65.181,36.761 L65.181,36.761 Z M59.317,47.817 C58.795,48.718 58.072,49.379 57.148,49.801 C56.225,50.224 54.398,50.435 51.664,50.435 L47.866,50.435 L47.866,38.969 L51.219,38.969 C53.72,38.969 55.383,39.062 56.213,39.245 C57.337,39.484 58.268,40.083 59.001,41.037 C59.735,41.993 60.104,43.205 60.104,44.676 C60.103,45.871 59.842,46.917 59.317,47.817 L59.317,47.817 Z M59.317,47.817" id="Shape"></path>
        </g>
    </g>
</svg>