<svg xmlns="http://www.w3.org/2000/svg" xmlns:xlink="http://www.w3.org/1999/xlink" version="1.1" x="0px" y="0px" width="100px" height="100px" viewBox="0 0 100 100" enable-background="new 0 0 100 100" xml:space="preserve">
<g id="Captions">
</g>
<g id="Your_Icon">
	<g>
		<path d="M91.558,19H2v3.76h89.558c1.072,0,2.205,0.927,2.436,1.891c0.057,0.165,0.1,0.333,0.1,0.5v5.289H6.907v8.934h86.978    l0.158,34.298c0,1.072-1.287,1.745-2.485,1.745H20.964v4.704h70.594c3.683,0,6.67-2.683,6.67-5.993V24.993    C98.228,21.683,95.24,19,91.558,19z"/>
		<rect x="16.49" y="62.574" width="21.158" height="4.683"/>
		<rect x="12.001" y="49.47" width="20.529" height="4.684"/>
		<path d="M66.963,59.572c0,1.865,1.516,3.381,3.381,3.381h10.568c1.867,0,3.38-1.516,3.38-3.381v-5.757    c0-1.866-1.513-3.38-3.38-3.38H70.344c-1.865,0-3.381,1.514-3.381,3.38V59.572z"/>
	</g>
</g>
</svg>