<?xml version="1.0" encoding="UTF-8" standalone="no"?>
<svg width="330px" height="400px" viewBox="0 0 330 400" version="1.1" xmlns="http://www.w3.org/2000/svg" xmlns:xlink="http://www.w3.org/1999/xlink" xmlns:sketch="http://www.bohemiancoding.com/sketch/ns">
    <title>Slice 1</title>
    <description>Created with Sketch (http://www.bohemiancoding.com/sketch)</description>
    <defs></defs>
    <g id="Page 1" stroke="none" stroke-width="1" fill="none" fill-rule="evenodd">
        <g id="Calque_1" fill="#FFFFFF">
            <path d="M318.604,142.286 C310.775,134.791 301.801,134.384 299.314,134.432 L272.708,134.432 C267.062,119.796 255.36,114.895 248.297,114.559 L218.408,114.548 C212.694,98.045 199.097,91.729 191.052,90.764 L190.369,90.682 L159.818,90.682 L159.818,33.352 C159.986,30.224 159.823,20.406 152.252,11.947 C145.156,4.02 134.198,0 119.682,0 C105.503,0 94.519,3.933 87.035,11.688 C78.346,20.693 77.934,31.475 77.955,33.832 L77.955,171.959 C63.268,157.098 49.477,149.545 36.955,149.545 C4.801,149.545 0,168.213 0,179.341 C0,188.779 4.041,201.979 4.501,203.453 L4.943,204.866 L97.046,352.073 L97.046,399.25 L285.088,399.25 L329.25,284.083 L329.25,172.182 C329.25,159.108 325.668,149.049 318.604,142.286 L318.604,142.286 Z M306.25,279.825 L269.275,376.25 L120.045,376.25 L120.045,345.472 L26.047,195.234 C24.847,191.083 23,183.514 23,179.34 C23,176.071 23.619,175.435 23.822,175.226 C25.025,173.989 29.185,172.545 36.954,172.545 C48.482,172.545 68.001,193.279 77.558,207.285 L77.954,207.015 L77.954,245.363 L100.954,245.363 L100.954,33.772 L100.947,33.361 C100.946,33.333 101.179,30.153 103.586,27.658 C106.527,24.61 112.093,22.999 119.682,22.999 C126.995,22.999 132.422,24.462 134.961,27.119 C136.664,28.901 136.847,31.122 136.861,31.817 L136.819,31.983 L136.819,169 L159.819,169 L159.819,113.682 L188.71,113.682 C190.543,114.139 198.069,116.915 198.069,131.614 L198.069,169 L221.069,169 L221.069,137.545 L246.889,137.545 C246.897,137.547 246.906,137.55 246.914,137.552 L247.75,137.545 L246.934,137.558 C249.314,138.266 252.955,142.364 252.955,153.886 L252.955,191.272 L275.955,191.272 L275.955,157.431 L299.455,157.431 L299.955,157.42 C299.969,157.42 301.499,157.75 302.698,158.898 C304.988,161.091 306.25,165.808 306.25,172.181 L306.25,279.825 L306.25,279.825 Z M306.25,279.825" id="Shape"></path>
        </g>
    </g>
</svg>